<?xml version="1.0" encoding="utf-8"?>
<!-- Generator: Adobe Illustrator 25.2.1, SVG Export Plug-In . SVG Version: 6.00 Build 0)  -->
<svg version="1.1" id="Layer_1" xmlns="http://www.w3.org/2000/svg" xmlns:xlink="http://www.w3.org/1999/xlink" x="0px" y="0px"
	 viewBox="0 0 328.5 60" style="enable-background:new 0 0 328.5 60;" xml:space="preserve">
<style type="text/css">
	.st0{fill:#2E6AB4;}
	.st1{fill:#009ADE;}
</style>
<g>
	<path class="st0" d="M148.4,41.6v-8.2h57v8.2h-12.4V60h-10V41.6h-11.7V60h-10V41.6H148.4z M154.2,20.3V1.1h10v17.5H201l-5.1,8.1
		h-35.7C156.4,26.7,154.2,24.5,154.2,20.3L154.2,20.3z"/>
	<path class="st0" d="M219.3,24.9h30.3V0h9.6v11.9h8.6V20h-8.6v13.7h-9.6v-7.1l-3.5,5.5h-31.1c-3.5,0-5.2-1.7-5.2-5.5V1.3h33v7.2
		h-23.5v4.7h21.2V20h-21.2V24.9z M259,60h-9.5v-6l-3.9,6h-24.4c-3.5,0-5.3-1.7-5.3-5.5V37h43L259,60z M225.5,44.5v8h24v-8H225.5z"/>
	<path class="st0" d="M279.1,24.4c1.5-2.6,1.9-4.9,1.9-8.5V2.2h10.3v13.9c0,1.8-0.2,3.5-0.5,5.3l16.8,19.4l-7,5.8l-13.9-16.4
		c-3.3,4.9-8.8,11.7-13.8,17.2l-7.2-6.2C270.8,35.6,276.3,29,279.1,24.4z M319.2,20.1h9.3v8.5h-9.3v31h-9.9V0h9.9L319.2,20.1z"/>
	<polygon class="st1" points="0,11.5 0,60 14.1,60 14.1,20.7 53.3,57.7 69.8,49.8 69.8,15.1 94.2,15.1 94.2,59.7 108.3,59.7 
		108.3,15.1 128.7,15.1 136.5,1 71.2,1 55,11.8 55,44.9 55,40.6 15,2.5 	"/>
</g>
</svg>
